Coordinates
version=1
nRows=9
nColumns=24
inDegrees=yes

Units are S.I. units (second, meters, Newtons, ...)
Angles are in degrees.

endheader
time	pelvis_tilt	pelvis_list	pelvis_rotation	pelvis_tx	pelvis_ty	pelvis_tz	hip_flexion_r	hip_adduction_r	hip_rotation_r	knee_angle_r	ankle_angle_r	subtalar_angle_r	mtp_angle_r	hip_flexion_l	hip_adduction_l	hip_rotation_l	knee_angle_l	ankle_angle_l	subtalar_angle_l	mtp_angle_l	lumbar_extension	lumbar_bending	lumbar_rotation
      3.68500000	     -8.45906426	      4.12803810	    -12.03750289	     -2.30456410	     -0.02492792	      0.42106756	     -7.06522449	     -1.81314907	     11.28636886	    -14.31511166	      2.85836347	      3.36374436	      8.92559952	     28.91726455	     -0.65466663	     -1.98776343	     -4.50605683	     -5.63687479	      3.67199057	     14.93841774	      6.14954725	     -1.55663224	      7.70537800
      3.69000000	     -8.52715231	      4.22781811	    -12.07177709	     -2.29722111	     -0.02568832	      0.42062077	     -7.06383005	     -2.02865106	     11.14972506	    -14.99452700	      2.51981406	      3.76457262	      9.50869504	     29.10397148	     -0.44162629	     -1.93176607	     -5.41300272	     -5.54697622	      3.95182384	     15.06638590	      6.37031888	     -1.63863489	      7.72239990
      3.69500000	     -8.57403490	      4.28634399	    -12.13665918	     -2.28986662	     -0.02643771	      0.42020920	     -7.06067569	     -2.19958296	     11.09643111	    -15.72767347	      2.11215780	      4.11367443	     10.05153677	     29.23716332	     -0.27665927	     -1.82770888	     -6.34770292	     -5.49717348	      4.15243580	     15.17405363	      6.55836756	     -1.67971769	      7.77775903
      3.70000000	     -8.63003936	      4.37993920	    -12.17401253	     -2.28239283	     -0.02719135	      0.41978456	     -7.01731148	     -2.40126397	     10.97781627	    -16.50986155	      1.64573137	      4.45525334	     10.60792748	     29.36300219	     -0.06264363	     -1.79926646	     -7.27357029	     -5.58853572	      4.30973449	     15.28039146	      6.77668253	     -1.76219595	      7.82026179
      3.70500000	     -8.69565960	      4.47464330	    -12.20960500	     -2.27489817	     -0.02795395	      0.41934517	     -6.92087469	     -2.60201487	     10.82990800	    -17.35458596	      1.13676811	      4.83116783	     11.25239002	     29.47758237	      0.14952146	     -1.80700282	     -8.17191649	     -5.79314577	      4.43336563	     15.38901441	      7.00468265	     -1.84351399	      7.86446746
      3.71000000	     -8.77211535	      4.59648292	    -12.23818655	     -2.26738683	     -0.02870931	      0.41889556	     -6.75948092	     -2.82699761	     10.64266453	    -18.26880361	      0.56493355	      5.19477059	     11.99646141	     29.58191283	      0.38382281	     -1.86272658	     -9.00982827	     -6.15030107	      4.51344183	     15.49458695	      7.24829086	     -1.95190244	      7.88405614
      3.71500000	     -8.84827081	      4.74475347	    -12.24926508	     -2.25985137	     -0.02939641	      0.41843633	     -6.55376446	     -3.07982507	     10.39659451	    -19.23399724	     -0.10251615	      5.57934497	     12.77096085	     29.66126699	      0.64464503	     -1.98284209	     -9.76125766	     -6.69953021	      4.54434525	     15.57962471	      7.49782297	     -2.09358592	      7.91904193
      3.72000000	     -8.93070488	      4.92375133	    -12.24975269	     -2.25234633	     -0.03002608	      0.41794700	     -6.27938505	     -3.36674366	     10.09836977	    -20.26653163	     -0.85660254	      5.98623213	     13.64981636	     29.73282839	      0.93109585	     -2.13247233	    -10.43178545	     -7.41184833	      4.49912769	     15.64625925	      7.75390308	     -2.26733542	      7.94601473
      3.72500000	     -9.01122674	      5.14132692	    -12.23779118	     -2.24487256	     -0.03057163	      0.41744166	     -5.94298164	     -3.69577317	      9.75353556	    -21.36515933	     -1.72372062	      6.38701833	     14.60076729	     29.79372279	      1.25428089	     -2.29573512	    -11.03121351	     -8.25419191	      4.35765673	     15.66745669	      8.00922673	     -2.48389802	      7.96697202
